<svg xmlns="http://www.w3.org/2000/svg" width="25" height="25" fill="none" viewBox="0 0 25 25"><path fill="#32B768" d="M22.4999 7.06465L14.5004 0.842654C13.7984 0.296516 12.9344 0 12.0449 0C11.1555 0 10.2914 0.296516 9.58942 0.842654L1.58842 7.06465C1.10759 7.43858 0.718562 7.91745 0.451055 8.46468C0.183548 9.01191 0.0446348 9.61304 0.0449223 10.2222V21.0222C0.0449223 21.8178 0.360993 22.5809 0.923602 23.1435C1.48621 23.7061 2.24927 24.0222 3.04492 24.0222H21.0449C21.8406 24.0222 22.6036 23.7061 23.1662 23.1435C23.7289 22.5809 24.0449 21.8178 24.0449 21.0222V10.2222C24.0449 8.98765 23.4749 7.82215 22.4999 7.06465Z"/></svg>