<svg xmlns="http://www.w3.org/2000/svg" width="36" height="36" fill="none" viewBox="0 0 36 36"><path stroke="#4B5563" stroke-linecap="round" stroke-linejoin="round" stroke-width="2.5" d="M13.5 18H22.5"/><path stroke="#4B5563" stroke-linecap="round" stroke-linejoin="round" stroke-width="2.5" d="M13.5 22.5H22.5"/><path stroke="#4B5563" stroke-linecap="round" stroke-linejoin="round" stroke-width="2.5" d="M7.875 5.625H28.125C28.4234 5.625 28.7095 5.74353 28.9205 5.95451C29.1315 6.16548 29.25 6.45163 29.25 6.75V28.125C29.25 29.0201 28.8944 29.8786 28.2615 30.5115C27.6286 31.1444 26.7701 31.5 25.875 31.5H10.125C9.22989 31.5 8.37145 31.1444 7.73851 30.5115C7.10558 29.8786 6.75 29.0201 6.75 28.125V6.75C6.75 6.45163 6.86853 6.16548 7.07951 5.95451C7.29048 5.74353 7.57663 5.625 7.875 5.625Z"/><path stroke="#4B5563" stroke-linecap="round" stroke-linejoin="round" stroke-width="2.5" d="M11.25 3.375V7.875"/><path stroke="#4B5563" stroke-linecap="round" stroke-linejoin="round" stroke-width="2.5" d="M18 3.375V7.875"/><path stroke="#4B5563" stroke-linecap="round" stroke-linejoin="round" stroke-width="2.5" d="M24.75 3.375V7.875"/></svg>