<svg xmlns="http://www.w3.org/2000/svg" width="22" height="28" fill="none" viewBox="0 0 22 28"><path stroke="#4B5563" stroke-linecap="round" stroke-linejoin="round" stroke-width="2.5" d="M16.3337 7.33333C16.3337 8.74782 15.7718 10.1044 14.7716 11.1046C13.7714 12.1048 12.4148 12.6667 11.0003 12.6667C9.58584 12.6667 8.22928 12.1048 7.22909 11.1046C6.2289 10.1044 5.66699 8.74782 5.66699 7.33333C5.66699 5.91885 6.2289 4.56229 7.22909 3.5621C8.22928 2.5619 9.58584 2 11.0003 2C12.4148 2 13.7714 2.5619 14.7716 3.5621C15.7718 4.56229 16.3337 5.91885 16.3337 7.33333V7.33333ZM11.0003 16.6667C8.52497 16.6667 6.151 17.65 4.40066 19.4003C2.65032 21.1507 1.66699 23.5246 1.66699 26H20.3337C20.3337 23.5246 19.3503 21.1507 17.6 19.4003C15.8496 17.65 13.4757 16.6667 11.0003 16.6667V16.6667Z"/></svg>