<svg width="30" height="28" viewBox="0 0 30 28" fill="none" xmlns="http://www.w3.org/2000/svg">
<path fill-rule="evenodd" clip-rule="evenodd" d="M24.5992 22.9096L19.7233 18.0338C21.009 16.5455 21.7876 14.5997 21.7876 12.4703C21.7876 7.79228 18.0296 4 13.3938 4C8.75804 4 5 7.79228 5 12.4703C5 17.1483 8.75804 20.9406 13.3938 20.9406C15.1458 20.9406 16.7725 20.3989 18.1183 19.4725L23.0773 24.4315C23.4975 24.8517 24.1789 24.8517 24.5992 24.4315C25.0194 24.0112 25.0194 23.3299 24.5992 22.9096ZM19.6354 12.4703C19.6354 15.9488 16.8409 18.7687 13.3938 18.7687C9.9467 18.7687 7.15226 15.9488 7.15226 12.4703C7.15226 8.99176 9.9467 6.17186 13.3938 6.17186C16.8409 6.17186 19.6354 8.99176 19.6354 12.4703Z" fill="#4B5563"/>
</svg>
